<?xml version="1.0" encoding="UTF-8"?> <svg xmlns="http://www.w3.org/2000/svg" viewBox="0 0 85.43 69.87"><defs><style>.cls-1{fill:#2951d5;}</style></defs><title>Ресурс 8</title><g id="Слой_2" data-name="Слой 2"><g id="Слой_5" data-name="Слой 5"><path class="cls-1" d="M8.08,52.65H38.9a.9.9,0,0,0,0-1.8H8.08a.9.9,0,0,0,0,1.8Z"></path><path class="cls-1" d="M8.08,49.45H38.9a.9.9,0,0,0,0-1.8H8.08a.9.9,0,0,0,0,1.8Z"></path><path class="cls-1" d="M45.48,53h.69q.67,0,1.32-.12a.9.9,0,0,0-.24-1.79,11.11,11.11,0,0,1-1.16.11,13.64,13.64,0,0,1-1.92-.05A.9.9,0,0,0,44,53,14.72,14.72,0,0,0,45.48,53Z"></path><path class="cls-1" d="M79.22,26.81a20.36,20.36,0,0,0-6.11-21.4A21.82,21.82,0,0,0,57.61,0C45.74.58,36.52,10.38,37.06,21.87a16.23,16.23,0,0,0,.57,3.94A14.16,14.16,0,0,0,30.78,39a11.69,11.69,0,0,0,1.82,6,.9.9,0,0,0,1.26.18A.91.91,0,0,0,34,43.88a10.1,10.1,0,0,1-1.46-5A12.26,12.26,0,0,1,39,27.11a15.35,15.35,0,0,1,6.44-1.39.9.9,0,0,0,.07-1.8A17.31,17.31,0,0,0,39.28,25a15.75,15.75,0,0,1-.43-3.24c-.49-10.5,8-19.46,18.84-20A20,20,0,0,1,71.92,6.76,18.67,18.67,0,0,1,78.31,20a18.43,18.43,0,0,1-3.19,11.29.9.9,0,0,0,.24,1.25.87.87,0,0,0,.5.16.9.9,0,0,0,.75-.4,20.28,20.28,0,0,0,2-3.67A13.32,13.32,0,0,1,80.14,48a13.24,13.24,0,0,1-9.26,4.35,13,13,0,0,1-3.53-.3.9.9,0,1,0-.4,1.76,15.23,15.23,0,0,0,3.3.36l.71,0A15.18,15.18,0,0,0,85.41,38.32,15.21,15.21,0,0,0,79.22,26.81Z"></path><path class="cls-1" d="M72.81,68.07H66.59c-.7-2.95-3.37-15-2.31-24.41a.9.9,0,1,0-1.78-.21c-1.07,9.41,1.39,21,2.24,24.62H50.16c.86-3.62,3.32-15.21,2.25-24.62a.9.9,0,0,0-1.79.21c1.07,9.4-1.6,21.46-2.31,24.41H38.2V65.44h3.16a.9.9,0,0,0,.9-.9V60a.9.9,0,0,0-.9-.9H36V55.85H38.9a.9.9,0,1,0,0-1.8H8.08a.9.9,0,0,0,0,1.8H11v3.24H5.62a.9.9,0,0,0-.9.9v4.55a.9.9,0,0,0,.9.9H8.78v2.63H.9a.9.9,0,0,0,0,1.8H72.81a.9.9,0,1,0,0-1.8Zm-60-12.22H34.17v3.24H12.81Zm-6.29,5H40.46v2.75H6.52Zm25.8,4.55v2.63H14.66V65.44ZM10.58,68.07V65.44h2.28v2.63Zm23.54,0V65.44H36.4v2.63Z"></path><path class="cls-1" d="M79.23,68.07H76.65a.9.9,0,0,0,0,1.8h2.58a.9.9,0,1,0,0-1.8Z"></path></g></g></svg> 