<?xml version="1.0" encoding="UTF-8"?> <svg xmlns="http://www.w3.org/2000/svg" viewBox="0 0 71.98 55.38"><defs><style>.cls-1{fill:#2951d5;}</style></defs><title>Ресурс 2</title><g id="Слой_2" data-name="Слой 2"><g id="Слой_5" data-name="Слой 5"><path class="cls-1" d="M71.19,53.81h-6V7.38A7.39,7.39,0,0,0,57.79,0H14.18A7.39,7.39,0,0,0,6.8,7.38V53.81h-6a.79.79,0,1,0,0,1.57h70.4a.79.79,0,1,0,0-1.57ZM42.88,1.58H55V40.46H42.88ZM55.77,42h1.29a1.25,1.25,0,0,1,0,2.49H40.81a1.25,1.25,0,1,1,0-2.49h15ZM17,1.58H29.1V40.46H17ZM29.89,42h1.28a1.25,1.25,0,1,1,0,2.49H14.92a1.25,1.25,0,1,1,0-2.49h15ZM63.6,53.81H8.37V7.38a5.81,5.81,0,0,1,5.81-5.8h1.23V40.46h-.49a2.82,2.82,0,1,0,0,5.64H31.17a2.82,2.82,0,0,0,0-5.64h-.5V1.58H41.3V40.46h-.49a2.82,2.82,0,1,0,0,5.64H57.06a2.82,2.82,0,0,0,0-5.64h-.5V1.58h1.23a5.81,5.81,0,0,1,5.81,5.8Z"></path></g></g></svg> 