<?xml version="1.0" encoding="UTF-8"?> <svg xmlns="http://www.w3.org/2000/svg" viewBox="0 0 43.14 24.5"><defs><style>.cls-1{fill:#f83142;}</style></defs><title>Ресурс 1</title><g id="Слой_2" data-name="Слой 2"><g id="Слой_1-2" data-name="Слой 1"><path class="cls-1" d="M43.08,22a21.53,21.53,0,0,0-4.14-11l-.25.19V2.53a3.5,3.5,0,0,0-.2-1.45,1.72,1.72,0,0,0-1.26-1A2.39,2.39,0,0,0,35.7.3L26.32,5l-.59.29a3.26,3.26,0,0,0-.56.38,3.74,3.74,0,0,0-.92-1.51,3.79,3.79,0,0,0-5.36,0A3.85,3.85,0,0,0,18,5.66a2.91,2.91,0,0,0-.56-.38L16.82,5,7.44.3A2.39,2.39,0,0,0,5.91,0a1.73,1.73,0,0,0-1.26,1,3.32,3.32,0,0,0-.19,1.45V9.09c0,.72,0,1.4,0,2.13L4.21,11A21.44,21.44,0,0,0,.07,22c0,.6-.07,1.21-.07,1.81H.81c0-.58,0-1.16.07-1.74A20.67,20.67,0,0,1,4.5,12a2.12,2.12,0,0,0,.57,1.16,1.82,1.82,0,0,0,1.57.44,3,3,0,0,0,.73-.23L8,13.1l1.17-.59,2.35-1.17L16.17,9l1.18-.59A3.67,3.67,0,0,0,18,8a3.75,3.75,0,0,0,.91,1.5,3.79,3.79,0,0,0,5.36,0A3.88,3.88,0,0,0,25.17,8a3.32,3.32,0,0,0,.63.4L27,9l4.69,2.34L34,12.51l1.17.59.59.3a3,3,0,0,0,.73.23,1.81,1.81,0,0,0,1.57-.44A2.06,2.06,0,0,0,38.64,12,20.68,20.68,0,0,1,42.27,22.1c0,.58.06,1.16.06,1.74h.81C43.14,23.24,43.13,22.63,43.08,22ZM17,7.68l-1.17.59-4.69,2.34L8.77,11.79l-1.17.58L7,12.66a2,2,0,0,1-.51.17,1,1,0,0,1-.87-.23,1.36,1.36,0,0,1-.37-.92V2.53A2.63,2.63,0,0,1,5.4,1.4.94.94,0,0,1,6.07.83a1.71,1.71,0,0,1,1,.19l9.38,4.69L17,6a2,2,0,0,1,.38.24H10.14v.81h7.58A1.56,1.56,0,0,1,17,7.68Zm6.7,1.25a3,3,0,1,1,.87-2.1A3,3,0,0,1,23.68,8.93Zm14.2-5.09v7.84a1.4,1.4,0,0,1-.36.92,1,1,0,0,1-.87.23,2,2,0,0,1-.52-.17l-.58-.29-1.17-.58L32,10.61,27.33,8.27l-1.17-.59a2,2,0,0,1-.62-.44h8V6.42h-8l.1-.11A2.2,2.2,0,0,1,26.1,6l.58-.3L36.07,1a1.68,1.68,0,0,1,1-.19.92.92,0,0,1,.67.57,2.78,2.78,0,0,1,.14,1.13Zm-5.31,20h-.82a10.18,10.18,0,1,0-20.36,0h-.81a11,11,0,0,1,22,0Zm-22,0h.81v.66H0v-.66H10.58Zm31.75,0h.81v.66H31.75v-.66H42.33Z"></path></g></g></svg> 