<?xml version="1.0" encoding="UTF-8"?> <svg xmlns="http://www.w3.org/2000/svg" viewBox="0 0 51.47 46.18"><defs><style>.cls-1{fill:#f83142;}</style></defs><title>Ресурс 4</title><g id="Слой_2" data-name="Слой 2"><g id="Слой_1-2" data-name="Слой 1"><path class="cls-1" d="M13.66,22.52a13.13,13.13,0,0,1-6.41,5l.26.76A14,14,0,0,0,14.32,23a23.15,23.15,0,0,0,2.15-3.78A24.07,24.07,0,0,0,17.9,15.1l-.79-.17A23,23,0,0,1,13.66,22.52Z"></path><path class="cls-1" d="M51.39,3A1.05,1.05,0,0,0,51,2.57a1.1,1.1,0,0,0-1.13-.1,1.06,1.06,0,0,0-.59,1v9.7a1.08,1.08,0,0,0,.43,1,1.07,1.07,0,0,0,1.13.09,1.09,1.09,0,0,0,.59-1V3.55A1.39,1.39,0,0,0,51.39,3Zm-.72.52v9.69a.28.28,0,0,1-.44.22.31.31,0,0,1-.09-.11.53.53,0,0,1,0-.22V3.43a.27.27,0,0,1,.43-.22.28.28,0,0,1,.1.12A.51.51,0,0,1,50.67,3.55Z"></path><path class="cls-1" d="M39.75,8.48h-8l-.06,0-.1.1-.16.14-.12.09a4.08,4.08,0,0,1-1,.6L30,9.57l-.14,0-.25.06c-.41.09-.94.15-1.39.22l.53.44a6.22,6.22,0,0,1,.51.45l.2.2.1.12a2.11,2.11,0,0,1,.19.23,7.34,7.34,0,0,1,.66,1,10.67,10.67,0,0,1,.51,1.14l.21.59.09.3.17.57L32,15l.37,0H33A10.39,10.39,0,0,0,34.4,15a9.39,9.39,0,0,0,2.65-.72h0a9.09,9.09,0,0,0,2.91-2,11.32,11.32,0,0,0,1.13-1.36c.16-.24.32-.49.47-.74l.33-.6.38-.75H39.75ZM41,9.58l-.08.14c-.14.24-.29.47-.44.69a10.55,10.55,0,0,1-1,1.26,8.35,8.35,0,0,1-2.65,1.85l.16.37-.17-.37a8.86,8.86,0,0,1-2.43.67,10.83,10.83,0,0,1-1.27.08c-.22,0-.43,0-.64,0l-.38,0-.11-.37-.22-.63A11.26,11.26,0,0,0,31.13,12a8.87,8.87,0,0,0-.73-1.15c-.08-.09-.14-.18-.22-.26L30,10.42h0l.24-.07.33-.12a5.43,5.43,0,0,0,1.23-.72L32,9.38l.09-.08,0,0H39v.3h2Z"></path><path class="cls-1" d="M47.69,4.64l-.14.14-.28.27a11.16,11.16,0,0,1-1.2,1A5.08,5.08,0,0,1,43.34,7.1H39v.29h-5.5l0-.1a4.91,4.91,0,0,0,.24-.74A5.33,5.33,0,0,0,33.88,5a5.45,5.45,0,0,0-1-2.88A5.44,5.44,0,0,0,30.38.31,5.38,5.38,0,0,0,27.33.15a5.32,5.32,0,0,0-4,4.3,5.32,5.32,0,0,0,1.23,4.33,3.57,3.57,0,0,0,.27.28L25,9.2l.07.06h0l-.08,0-.13.05a3.52,3.52,0,0,0-1,.55,3.38,3.38,0,0,0-.77.83,3.46,3.46,0,0,0-.27.5c0,.09-.08.18-.11.27l-.05.15H19l0-.3c0-.24,0-.48,0-.73a8.22,8.22,0,0,0-.19-1.47,4.38,4.38,0,0,0-1.54-2.62,4.24,4.24,0,0,0-3-.68,2.56,2.56,0,0,0-1.49.63,4.92,4.92,0,0,0-1,1.17,13.64,13.64,0,0,0-1.23,2.63c-.32.9-.6,1.8-.86,2.71-.51,1.82-1,3.64-1.45,5.45s-1,3.61-1.65,5.36a17.12,17.12,0,0,1-2.56,4.84,5.85,5.85,0,0,1-2,1.64l-.3.13-.34.13c-.22.1-.45.2-.68.33l-.08.05L.48,31a2.75,2.75,0,0,0-.26.22.66.66,0,0,0-.22.51.59.59,0,0,0,.27.46,1.38,1.38,0,0,0,.62.2,6.34,6.34,0,0,0,1.52,0,13.33,13.33,0,0,0,1.43-.24,20.27,20.27,0,0,0,2.76-.8,24.26,24.26,0,0,0,9.52-6.18,21,21,0,0,0,3.31-4.68,19.76,19.76,0,0,0,1.15-2.63c.17-.45.31-.9.45-1.36l.19-.69.08-.35,0-.14h0l.58.26.6.28,0,.06q-.39,1.34-.9,2.64a37.33,37.33,0,0,1-2.39,5A28.17,28.17,0,0,1,12.1,32,20.3,20.3,0,0,1,2,36.23l-.68.07-.63.1s-.12,0-.14,0l.1.12.2.26c.12.17.27.34.42.52l.35.38L1.9,38l.52.5a23.93,23.93,0,0,0,2.23,1.79,29,29,0,0,0,5,2.8,37.47,37.47,0,0,0,11,2.83c.94.11,1.88.18,2.83.22l1.42.05h1.05s.06,0,.08,0l.06-.06.1-.14.25-.36a31.65,31.65,0,0,0,2.72-5,45,45,0,0,0,3.14-10.9,46.77,46.77,0,0,0,.5-11.34l-.08-.71-.07-.52s0,0,0,0h.6a12.87,12.87,0,0,0,2.89-.38,11.25,11.25,0,0,0,5-2.83A12.34,12.34,0,0,0,43,11.62a12.05,12.05,0,0,0,.72-1.26c.11-.22.22-.43.31-.66l0,0h0a6.44,6.44,0,0,1,2.34,1.2c.36.28.7.58,1,.89l.25.24.18.19.25.26c.31.35.66.8,1,1.2V3c-.39.47-.78,1-1.14,1.35Zm.6.54V11.5L48,11.18a12.52,12.52,0,0,0-1.11-.94,7,7,0,0,0-2.64-1.35,3.9,3.9,0,0,0-.67-.11l-.27.6c-.08.22-.19.42-.28.62a12.63,12.63,0,0,1-.68,1.19A12,12,0,0,1,40.6,13.3a10.37,10.37,0,0,1-4.68,2.62,12.27,12.27,0,0,1-2.7.36H32.4l-.68,0s0,0,0,.05v.08l0,.17.05.33.08.53,0,.34.08.69a46.24,46.24,0,0,1-.49,11.14,44.18,44.18,0,0,1-3.09,10.7,31.53,31.53,0,0,1-2.64,4.89l-.16.22h-.71c-.46,0-.93,0-1.39,0-.93,0-1.86-.12-2.79-.22A36.31,36.31,0,0,1,10,42.33a27.92,27.92,0,0,1-4.83-2.71A22.72,22.72,0,0,1,3,37.89l-.5-.48L2.09,37h0A21.27,21.27,0,0,0,12.6,32.66,29.1,29.1,0,0,0,19.9,24a39,39,0,0,0,2.44-5.14c.34-.89.65-1.79.92-2.7l.08-.28.09-.34c.08-.14-.09-.15-.19-.21l-.31-.15-.68-.31-.71-.33-.64-.3-.08,0s-.06,0-.06,0l0,.18-.07.34-.13.55-.08.34-.18.66c-.13.45-.27.89-.43,1.32a19.6,19.6,0,0,1-1.11,2.53,20.25,20.25,0,0,1-3.18,4.5,23.62,23.62,0,0,1-9.21,6,22.44,22.44,0,0,1-2.66.77c-.45.09-.9.18-1.35.23a6.35,6.35,0,0,1-1.29,0H1l.08,0c.18-.1.39-.2.59-.29L2,31.15,2.36,31a6.92,6.92,0,0,0,2.32-1.86,17.86,17.86,0,0,0,2.69-5.08C8,22.28,8.55,20.46,9,18.64S10,15,10.49,13.2a21.46,21.46,0,0,1,2-5.13,2.56,2.56,0,0,1,1.87-1.43,3.37,3.37,0,0,1,2.41.53A3.55,3.55,0,0,1,18,9.32a7.22,7.22,0,0,1,.16,1.32c0,.23,0,.45,0,.68v.17l0,.23c0,.23,0,.48-.08.72H23l.2-.18.2-.17a1.84,1.84,0,0,1,.06-.23l0-.11a1.19,1.19,0,0,1,.08-.2,2.93,2.93,0,0,1,.21-.39,2.6,2.6,0,0,1,.6-.64,3,3,0,0,1,.78-.44l.1,0,.15,0c.17-.05.35-.08.52-.12L27,9.66l-.64-.43a6.19,6.19,0,0,1-.62-.45l-.21-.17-.12-.12a2.5,2.5,0,0,1-.22-.24,4.14,4.14,0,0,1-.71-1.1,4.45,4.45,0,0,1-.34-2.57,4.5,4.5,0,0,1,8.94.47A4.81,4.81,0,0,1,33,6.36a4.48,4.48,0,0,1-.2.62l0,.08-.07.15c0,.1-.1.21-.16.33l-.38.65h7.64V7.9h3.59a5.88,5.88,0,0,0,3.19-1.21,13.12,13.12,0,0,0,1.29-1.05l.3-.29Z"></path><path class="cls-1" d="M28,35.87a30.5,30.5,0,0,1-3.45,7.35l-.15.21s0,0,0,0H24.1l-1,0c-.68,0-1.37-.07-2-.13a36.38,36.38,0,0,1-4-.58A28.47,28.47,0,0,1,9.34,40L9,40.74a29.36,29.36,0,0,0,7.87,2.76,38,38,0,0,0,4.13.59c.69.06,1.38.1,2.08.13l1,0h.69s.08,0,.1-.05l.08-.11.14-.19.15-.22a31.37,31.37,0,0,0,3.55-7.55A41.06,41.06,0,0,0,30.55,28l-.8-.09A40.71,40.71,0,0,1,28,35.87Z"></path></g></g></svg> 