<?xml version="1.0" encoding="UTF-8"?> <svg xmlns="http://www.w3.org/2000/svg" viewBox="0 0 42.4 51.69"><defs><style>.cls-1{fill:#f83142;}</style></defs><title>Ресурс 2</title><g id="Слой_2" data-name="Слой 2"><g id="Слой_1-2" data-name="Слой 1"><path class="cls-1" d="M42.39,41.41a6.49,6.49,0,0,0-.62-2.23l-15-31.55L24.92,3.68l-.48-1a7,7,0,0,0-.57-1A4,4,0,0,0,22.06.16,2.45,2.45,0,0,0,20.8,0a2.84,2.84,0,0,0-1.15.5,5.14,5.14,0,0,0-1.5,1.79c-.67,1.34-1.26,2.63-1.89,4L8.77,22.05,1.28,37.83c-.31.66-.64,1.28-.92,2A5.39,5.39,0,0,0,0,42.15a3.85,3.85,0,0,0,.89,2.2,4.29,4.29,0,0,0,2,1.27,6.85,6.85,0,0,0,2.27.29H19a8.38,8.38,0,0,1-1.26,2.79A5.92,5.92,0,0,1,16.54,50c-.11.09-.23.17-.35.25l-.08.06-.15.09-.42.23a4.88,4.88,0,0,1-.53.21l-.32.11-.47.13-2.36.65H30.54L28.18,51l-.47-.13-.32-.11c-.23-.07-.35-.14-.53-.21l-.42-.23-.14-.09-.09-.06c-.12-.08-.24-.16-.35-.25a6.18,6.18,0,0,1-1.19-1.26,8.17,8.17,0,0,1-1.25-2.79h5.76c2.92,0,5.8,0,8.76,0a5.61,5.61,0,0,0,2.25-.56,3.9,3.9,0,0,0,1.73-1.61A4.12,4.12,0,0,0,42.39,41.41ZM16.93,6.6c.63-1.31,1.25-2.66,1.88-3.92a4.49,4.49,0,0,1,1.27-1.54A1.77,1.77,0,0,1,21.8.86a3.21,3.21,0,0,1,1.45,1.27,6.09,6.09,0,0,1,.52.89l.47,1,1.82,3.83-1.32.79a1,1,0,0,0-.08-.11,1.93,1.93,0,0,0-2.72,0,1.9,1.9,0,0,0-.56,1.36,1.69,1.69,0,0,0,.12.67l-3.07,1.83,0,0A2,2,0,0,0,17,11.77a1.9,1.9,0,0,0-1.36.56,2,2,0,0,0-.57,1.36,2,2,0,0,0,.1.59l-2.68,1.59Zm7.54,3.27a1.17,1.17,0,0,1-1.17,1.18,1.18,1.18,0,1,1,0-2.35A1.17,1.17,0,0,1,24.47,9.87Zm-6.26,3.82A1.18,1.18,0,1,1,17,12.52,1.17,1.17,0,0,1,18.21,13.69ZM9.44,22.37,12,17.08l3.62-2.15a.58.58,0,0,0,.1.12,1.91,1.91,0,0,0,1.36.57,2,2,0,0,0,1.36-.57A1.9,1.9,0,0,0,19,13.69a2.06,2.06,0,0,0-.13-.69l3.06-1.82.05.06a1.93,1.93,0,0,0,2.72,0,1.9,1.9,0,0,0,.56-1.37,1.76,1.76,0,0,0-.1-.6l1.26-.76,3.87,8.15L27.91,18h0a2,2,0,0,0-1.36-.56,2,2,0,0,0-1.36.56,1.9,1.9,0,0,0-.56,1.36,1.84,1.84,0,0,0,.06.47l-4.75,2.68-.16-.21a1.93,1.93,0,0,0-3.29,1.37,1.86,1.86,0,0,0,.14.7L11.54,27.2l-.06-.08a1.9,1.9,0,0,0-1.36-.56,1.86,1.86,0,0,0-1.36.56,1.93,1.93,0,0,0-.57,1.36,2.18,2.18,0,0,0,.09.56L5.55,30.58Zm18.28-3a1.19,1.19,0,0,1-1.18,1.18,1.18,1.18,0,0,1,0-2.35A1.19,1.19,0,0,1,27.72,19.33Zm-8.14,4.31a1.18,1.18,0,1,1-1.18-1.18A1.17,1.17,0,0,1,19.58,23.64Zm-8.29,4.84a1.18,1.18,0,1,1-1.17-1.18A1.19,1.19,0,0,1,11.29,28.48ZM1.48,43.86a3.1,3.1,0,0,1-.72-1.77,4.88,4.88,0,0,1,.3-2c.24-.63.59-1.3.9-2l3-6.4L8.64,29.7a1.49,1.49,0,0,0,.12.14,1.86,1.86,0,0,0,1.36.56,1.9,1.9,0,0,0,1.36-.56A2,2,0,0,0,12,28.48a1.81,1.81,0,0,0-.12-.64L17,25s0,0,0,0a2,2,0,0,0,1.36.56A1.9,1.9,0,0,0,19.76,25a2,2,0,0,0,.57-1.36,2,2,0,0,0-.07-.49L25,20.48a1.81,1.81,0,0,0,.18.21,1.93,1.93,0,0,0,1.36.57,1.93,1.93,0,0,0,1.93-1.93,1.82,1.82,0,0,0-.15-.72l2.25-1.27L35,26.76l-1.46.76,0-.06a1.94,1.94,0,0,0-2.73,0,2,2,0,0,0-.56,1.36,1.92,1.92,0,0,0,.05.41l-4.69,2.43a2,2,0,0,0-1.36-.56A1.93,1.93,0,0,0,22.32,33c0,.11,0,.22,0,.33l-4.2,2.18-.09-.11a1.94,1.94,0,0,0-1.36-.56,1.9,1.9,0,0,0-1.36.56,2,2,0,0,0-.57,1.36,1.84,1.84,0,0,0,.07.47l-4,2.06c-.05-.06-.09-.12-.15-.18a1.9,1.9,0,0,0-1.36-.56,1.91,1.91,0,0,0-1.92,1.92,1.71,1.71,0,0,0,.09.55l-5.85,3Zm31.87-15a1.18,1.18,0,1,1-1.17-1.18A1.19,1.19,0,0,1,33.35,28.82ZM25.42,33a1.18,1.18,0,1,1-1.17-1.17A1.18,1.18,0,0,1,25.42,33Zm-7.55,3.76a1.18,1.18,0,1,1-2.35,0,1.18,1.18,0,0,1,2.35,0Zm-7.32,3.71a1.18,1.18,0,1,1-1.18-1.17A1.18,1.18,0,0,1,10.55,40.49Zm13.51,8.64a6.64,6.64,0,0,0,1.33,1.42c.13.1.26.2.4.29l.16.1h-9.5l.16-.1c.14-.09.27-.19.4-.29a6.64,6.64,0,0,0,1.33-1.42,9,9,0,0,0,1.42-3.22h2.89A8.78,8.78,0,0,0,24.06,49.13Zm-2-4H5.17a6,6,0,0,1-2-.25,4.09,4.09,0,0,1-.77-.34L7.89,41.7l.12.15a2,2,0,0,0,1.36.57,1.95,1.95,0,0,0,1.93-1.93,2.34,2.34,0,0,0-.08-.52l3.94-2a1.18,1.18,0,0,0,.18.21,1.91,1.91,0,0,0,1.36.57,1.91,1.91,0,0,0,1.82-2.52l4.1-2.14a2.16,2.16,0,0,0,.27.33,1.91,1.91,0,0,0,1.36.57A1.91,1.91,0,0,0,26.17,33a1.83,1.83,0,0,0-.15-.73l4.58-2.38a1.39,1.39,0,0,0,.21.27,1.94,1.94,0,0,0,2.73,0,2,2,0,0,0,.56-1.36,2.14,2.14,0,0,0-.12-.66l1.38-.72,4.2,8.83-5.91,3a1.71,1.71,0,0,0-.11-.14,1.94,1.94,0,0,0-2.73,0,2,2,0,0,0-.56,1.36,1.91,1.91,0,0,0,.07.47Zm11.33-4.67a1.18,1.18,0,1,1-1.17-1.17A1.18,1.18,0,0,1,33.35,40.49Zm7.91,2.87a3.14,3.14,0,0,1-1.41,1.31,4.79,4.79,0,0,1-2,.48H23.68l7-3.52a1.73,1.73,0,0,0,.17.21,1.93,1.93,0,0,0,3.29-1.36,1.78,1.78,0,0,0-.1-.56l5.88-3,1.21,2.55a5.76,5.76,0,0,1,.55,2A3.33,3.33,0,0,1,41.26,43.36Z"></path></g></g></svg> 