<?xml version="1.0" encoding="UTF-8"?> <svg xmlns="http://www.w3.org/2000/svg" viewBox="0 0 44.14 36.09"><defs><style>.cls-1{fill:#f83142;}</style></defs><title>Ресурс 6</title><g id="Слой_2" data-name="Слой 2"><g id="Слой_1-2" data-name="Слой 1"><path class="cls-1" d="M0,25.38H1.82L8.29,36.09l6.47-10.71h.84l6.47,10.71,6.47-10.71h.31l6.48,10.71L41.8,25.38h2.34v-1H0Zm40.64,0-5.31,8.79L30,25.38Zm-13.26,0-5.31,8.79-5.31-8.79Zm-13.78,0L8.29,34.17,3,25.38Z"></path><path class="cls-1" d="M0,13.56H1.82L8.29,24.27l6.47-10.71h.84l6.47,10.71,6.47-10.71h.31l6.48,10.71L41.8,13.56h2.34v-1H0Zm40.64,0-5.31,8.79L30,13.56Zm-13.26,0-5.31,8.79-5.31-8.79Zm-13.78,0L8.29,22.35,3,13.56Z"></path><path class="cls-1" d="M0,0V1H1.82L8.29,11.71,14.76,1h.84l6.47,10.71L28.54,1h.31l6.48,10.71L41.8,1h2.34V0ZM8.29,9.79,3,1H13.6Zm13.78,0L16.76,1H27.38Zm13.26,0L30,1H40.64Z"></path></g></g></svg> 