<?xml version="1.0" encoding="UTF-8"?> <svg xmlns="http://www.w3.org/2000/svg" viewBox="0 0 87.18 57.58"><defs><style>.cls-1{fill:#2951d5;}</style></defs><title>Ресурс 5</title><g id="Слой_2" data-name="Слой 2"><g id="Слой_5" data-name="Слой 5"><path class="cls-1" d="M87,14.88C86.46,14.28,74.18,0,43.59,0S.72,14.28.21,14.88a.9.9,0,0,0-.21.58V56.68a.9.9,0,0,0,1.8,0V30.73c1.66-1.85,14.08-14.52,41.79-14.52S83.7,28.88,85.38,30.73V43.79h0V56.68a.9.9,0,1,0,1.8,0V43.79h0V15.46A1,1,0,0,0,87,14.88Zm-1.59.93V23a40.36,40.36,0,0,0-7.21-5v-7.8A34.69,34.69,0,0,1,85.38,15.81ZM48.89,10.44V2c2.83.17,5.48.47,8,.87v8.4C54.37,10.86,51.72,10.59,48.89,10.44Zm9.76-7.3a67,67,0,0,1,8,2v8.21a73.55,73.55,0,0,0-8-1.82Zm9.76,2.59a55.21,55.21,0,0,1,8,3.51v7.89a56.51,56.51,0,0,0-8-3.23ZM47.09,1.87v8.49c-1.14,0-2.31-.07-3.5-.07-1.54,0-3,0-4.46.1V1.91c1.44-.07,2.92-.11,4.46-.11C44.79,1.8,45.94,1.83,47.09,1.87ZM19.6,5.43a64.82,64.82,0,0,1,8-2.11v8.22a.58.58,0,0,0,0,.14,69.27,69.27,0,0,0-8,2Zm-1.78,8.78a56.51,56.51,0,0,0-8,3.41V9.77a53.11,53.11,0,0,1,8-3.7v8S17.82,14.18,17.82,14.21ZM29.36,3a78.91,78.91,0,0,1,8-1v8.47q-4.24.28-8,.89ZM1.8,15.81a32.7,32.7,0,0,1,6.24-5v7.76A39.56,39.56,0,0,0,1.8,23Zm41.79-1.4C18.79,14.41,6,24.13,1.8,28.15V25.52C3.55,23.74,16,12.09,43.59,12.09s40,11.65,41.79,13.43v2.63C81.16,24.13,68.39,14.41,43.59,14.41Z"></path></g></g></svg> 