<?xml version="1.0" encoding="UTF-8"?> <svg xmlns="http://www.w3.org/2000/svg" viewBox="0 0 50.8 82.25"><defs><style>.cls-1{fill:#2951d5;}</style></defs><title>Ресурс 4</title><g id="Слой_2" data-name="Слой 2"><g id="Слой_5" data-name="Слой 5"><path class="cls-1" d="M27.29,28.05a4.87,4.87,0,0,0,1.68.31,4,4,0,0,0,4-4.13c-.15-2.54-4.12-4.49-4.57-4.71a.9.9,0,1,0-.77,1.63c1.39.66,3.49,2.13,3.55,3.18a2.15,2.15,0,0,1-.89,1.79,2.41,2.41,0,0,1-2.42.24.91.91,0,0,0-1.15.54A.89.89,0,0,0,27.29,28.05Z"></path><path class="cls-1" d="M.29,73.18a1,1,0,0,0,0,1.4,3.94,3.94,0,0,1,.92,1.86,1,1,0,0,0,1,.83h.16a1,1,0,0,0,.82-1.14,5.79,5.79,0,0,0-1.48-2.94A1,1,0,0,0,.29,73.18Z"></path><path class="cls-1" d="M50.54,71.41a1,1,0,0,0-1.23-.18A23.62,23.62,0,0,0,45,74.8a.89.89,0,0,0-.86-.68H41.65V69.75a.9.9,0,0,0-.9-.9h-7.5a19.81,19.81,0,0,0,0-7.08,9.72,9.72,0,0,1,0-2.58l.09-.69a9.44,9.44,0,0,1,.83-2.71c2-4.23,2.54-11.35,2.57-11.65a1.81,1.81,0,0,0,0-.23,7.09,7.09,0,0,0,2.19-.49.91.91,0,0,0,.52-.79.89.89,0,0,0-.47-.81,7.82,7.82,0,0,1-3.36-3.57,3.3,3.3,0,0,0-1.46-1.56c0-1.95,1.46-6.55,2.15-8.43a4.18,4.18,0,0,0,1.52-.69,4,4,0,0,0,1.62-3.34,3.13,3.13,0,0,0-.45-1.38l.42-1.74a.76.76,0,0,0,0-.21,4.14,4.14,0,0,0-2.11-3.6c-1.12-.62-2.67-1.5-3.68-2.12a3,3,0,0,1-1.39-1.71c1.74-2,2.22-5.94,1.68-8.09A5.71,5.71,0,0,0,28.31,1a5.94,5.94,0,0,0-1.39.17,5.69,5.69,0,0,0-.69.25L25.85,1a2.78,2.78,0,0,0-2.33-1,2.74,2.74,0,0,0-.73,5.32,5.68,5.68,0,0,0,0,2.81,10.18,10.18,0,0,0,1.6,3.25l-.37.88c-.55,1.39-1.75,2.24-3.89,2.75a5.73,5.73,0,0,0-1.19.39c-7.18,3.18-4.82,10.16-4.79,10.23a.91.91,0,0,0,.85.6l.17,0,4.81-.94a.91.91,0,0,0,.73-.9v-.06l1.11,2.05a9.67,9.67,0,0,1-1,9.43l-1.1,1.54a10.55,10.55,0,0,0-2,1.23A8.23,8.23,0,0,0,14.6,44a.9.9,0,0,0,.82,1c.39,0,.77,0,1.14,0s.78,0,1.16,0a30.63,30.63,0,0,0,1.47,7.48c.38,1.38.78,2.8,1.16,4.43,1.06,4.51-2.05,9.73-2.68,10.74a3.67,3.67,0,0,0-.26.48,3.5,3.5,0,0,0-.23.76H11.69a.9.9,0,0,0-.9.9v4.37H8.32a1,1,0,0,0-.3.06,11.22,11.22,0,0,0-4.47-5.1,1,1,0,0,0-1.12.07,1,1,0,0,0-.34,1.06,48.38,48.38,0,0,1,1.8,10.24,1.86,1.86,0,0,0,1.86,1.8H6.2a1,1,0,1,0,0-2H5.87a40.43,40.43,0,0,0-1.1-7.57,10.09,10.09,0,0,1,2.09,4.22,1,1,0,0,0,.56.71v3.64a.9.9,0,0,0,.9.9h35.8a.9.9,0,0,0,.9-.9v-3.7a1.06,1.06,0,0,0,.21-.16s.69-.77,1.64-1.69a9.64,9.64,0,0,0-.48,4.55h-.27a1,1,0,0,0,0,2h.46a2,2,0,0,0,1.52-.72,1.61,1.61,0,0,0,.31-1.33c-.79-3.35,2.17-7.49,2.2-7.53A1,1,0,0,0,50.54,71.41ZM32.48,55a10.92,10.92,0,0,0-1,3.24l-.09.68A11,11,0,0,0,31.46,62a19.5,19.5,0,0,1,.14,5.84c-1.07-2-2.2-5.21-2.86-10.38-1.55-12,3.05-14.07,4.22-14.39a6.62,6.62,0,0,0,2,.71c0,.06,0,.11,0,.18S34.31,51.09,32.48,55Zm3.77-12.89c-1.51,0-3.71-.66-5.4-4l1.39-.11A1.67,1.67,0,0,1,33.9,39,9.21,9.21,0,0,0,36.25,42.15ZM27.36,3a4.33,4.33,0,0,1,.95-.11,3.91,3.91,0,0,1,3.8,3c.49,2-.11,5.49-1.51,6.74l-.08.08a1.67,1.67,0,0,1-.66.34,1.49,1.49,0,0,1-.36,0c-1.09,0-2.43-1-3.46-2.37l0,0a8.43,8.43,0,0,1-1.51-2.9A3.92,3.92,0,0,1,27.36,3Zm-4.45-.69a1,1,0,0,1,1.55-.12l.2.24a5.55,5.55,0,0,0-1.16,1.3,1,1,0,0,1-.65-.54A1,1,0,0,1,22.91,2.26Zm1.47,28a11.51,11.51,0,0,0-1-4.64l-2.3-4.23,0,0a.69.69,0,0,0-.11-.13.86.86,0,0,0-.14-.13l0,0-.1,0-.19-.07h-.33A.85.85,0,0,0,20,21l-.12,0s0,0,0,0l-.13.12a.8.8,0,0,0-.13.13l0,0a4,4,0,0,0-.68,2.36l-3.25.63c-.3-1.58-.44-5.27,4-7.24a4.57,4.57,0,0,1,.88-.28c1.72-.41,4.12-1.26,5.14-3.82v0a5.81,5.81,0,0,0,3.84,1.9,3.49,3.49,0,0,0,.79-.1l.4-.14a4.9,4.9,0,0,0,1.94,2.13c1,.64,2.61,1.53,3.74,2.16a2.33,2.33,0,0,1,1.19,1.93l-.11.43a13.91,13.91,0,0,0-2.67-1.71A.9.9,0,0,0,34,21.15c1.39.66,3.49,2.13,3.55,3.18a2.15,2.15,0,0,1-.89,1.79,2.41,2.41,0,0,1-2.42.24.91.91,0,0,0-1.15.54.89.89,0,0,0,.54,1.15,4.53,4.53,0,0,0,.67.19,37.41,37.41,0,0,0-2,8,1.08,1.08,0,0,1-.18,0l-2,.16a22.52,22.52,0,0,0-7.58,0A11.33,11.33,0,0,0,24.38,30.22ZM18.84,40a11.37,11.37,0,0,1,7.21-2.05c.67,0,1.36,0,2.09.1-2.05,1.87-6.39,5.19-11.55,5.21A6.65,6.65,0,0,1,18.84,40Zm.22,28.86c0-.08.08-.16.13-.24.7-1.11,4.14-6.9,2.91-12.11-.39-1.67-.81-3.17-1.18-4.5a28.32,28.32,0,0,1-1.4-7.26,21.72,21.72,0,0,0,9.88-5.41,10.89,10.89,0,0,0,1.92,2.59,6.94,6.94,0,0,0-2.2,1.88c-2.26,2.88-3,7.58-2.16,14a31.88,31.88,0,0,0,3.13,11.12h-11A.06.06,0,0,1,19.06,68.81Zm-6.47,1.84H39.85v3.47H12.59Zm30.63,9.72h-34V75.92h34Z"></path></g></g></svg> 