<?xml version="1.0" encoding="UTF-8"?> <svg xmlns="http://www.w3.org/2000/svg" viewBox="0 0 77.9 48.71"><defs><style>.cls-1{fill:#2951d5;}</style></defs><title>Ресурс 3</title><g id="Слой_2" data-name="Слой 2"><g id="Слой_5" data-name="Слой 5"><path class="cls-1" d="M62.52,18A15.18,15.18,0,0,0,57,19L49.29,1.69h10.4a.85.85,0,1,0,0-1.69H48a.87.87,0,0,0-.71.39.84.84,0,0,0-.06.8l3.86,8.63H29.22L28,7.12h3.2a3.38,3.38,0,1,0,0-6.75H20.49a3.38,3.38,0,1,0,0,6.75h5.65l1.53,3.36-5.31,9.14a15.38,15.38,0,1,0,8.38,14.55h8.45l.08,0h0l.07,0,.06,0h0l0,0a.12.12,0,0,0,.05-.05l0,0,0,0h0l.05-.07v0h0L52.17,12.26l3.3,7.4A15.38,15.38,0,1,0,62.52,18ZM26.67,5.43H20.49a1.69,1.69,0,1,1,0-3.37H31.2a1.69,1.69,0,1,1,0,3.37ZM15.38,47a13.69,13.69,0,1,1,6.13-25.93L14.65,32.9l0,.05a.59.59,0,0,0,0,.08.24.24,0,0,0,0,.08.19.19,0,0,0,0,.08.28.28,0,0,0,0,.09v.08a.22.22,0,0,0,0,.08.19.19,0,0,0,0,.08.24.24,0,0,1,0,.08l0,.08a3762909382041.27,3762909382041.27,0,0,1,.08.14l.06.06.05.06.06.05.07,0,0,0,.08,0h0l.15,0H29A13.7,13.7,0,0,1,15.38,47Zm1.47-14.54L23,21.94A13.71,13.71,0,0,1,29,32.48Zm13.89,0a15.38,15.38,0,0,0-6.92-12l4.7-8.11,9.13,20.11Zm8.31-1L30,11.51H50.65ZM62.52,47A13.69,13.69,0,0,1,56.17,21.2l5.58,12.47a.85.85,0,0,0,1.11.43A.85.85,0,0,0,63.29,33L57.71,20.51A13.69,13.69,0,1,1,62.52,47Z"></path></g></g></svg> 