<?xml version="1.0" encoding="UTF-8"?> <svg xmlns="http://www.w3.org/2000/svg" viewBox="0 0 44.63 72.24"><defs><style>.cls-1{fill:#2951d5;}</style></defs><title>Ресурс 6</title><g id="Слой_2" data-name="Слой 2"><g id="Слой_5" data-name="Слой 5"><path class="cls-1" d="M44.59,21.76a2.66,2.66,0,0,0-.11-1.31L37.87,1.78A2.67,2.67,0,0,0,35.35,0H9.28A2.67,2.67,0,0,0,6.76,1.78L.15,20.45A2.66,2.66,0,0,0,0,21.72L4.89,64.66a2.12,2.12,0,0,0,.11.45,1.62,1.62,0,0,0-1.58,1.62v3.89A1.62,1.62,0,0,0,5,72.24H39.42A1.61,1.61,0,0,0,41,70.62V66.73a1.6,1.6,0,0,0-1.42-1.6,3.8,3.8,0,0,0,.13-.51ZM1.81,21.48a.88.88,0,0,1,0-.43L8.46,2.38a.86.86,0,0,1,.82-.58H35.35a.86.86,0,0,1,.82.58L42.78,21a.94.94,0,0,1,0,.48L38,64.38a.85.85,0,0,1-.85.73H7.52a.85.85,0,0,1-.85-.69Zm37.43,49h-34V66.91h34Z"></path><path class="cls-1" d="M36.35,24.1A2.72,2.72,0,0,0,38.51,23a2.59,2.59,0,0,0,.41-2.43L34,6.21A2.7,2.7,0,0,0,31.42,4.4H13.21a2.7,2.7,0,0,0-2.56,1.81L5.71,20.61A2.6,2.6,0,0,0,6.12,23,2.72,2.72,0,0,0,8.28,24.1ZM7.41,21.19l4.94-14.4a.9.9,0,0,1,.86-.58H31.42a.9.9,0,0,1,.86.58l4.94,14.4a.84.84,0,0,1-.13.76,1,1,0,0,1-.74.35H8.28a1,1,0,0,1-.74-.36A.81.81,0,0,1,7.41,21.19Z"></path><path class="cls-1" d="M14.36,50H20.6a.76.76,0,0,0,.76-.7l.79-8a.77.77,0,0,0-.76-.83H13.57a.75.75,0,0,0-.56.25.74.74,0,0,0-.2.58l.79,8A.77.77,0,0,0,14.36,50Zm6.2-8-.66,6.43H15.06l-.66-6.43Z"></path><path class="cls-1" d="M21.38,37.42a.41.41,0,0,0,.16,0l2.95-.6a.69.69,0,0,0,.34-.17L26.71,35V39.4l-2.94,9.23a.76.76,0,0,0,.5.95.62.62,0,0,0,.23,0,.78.78,0,0,0,.73-.53l2.18-6.86,1.82,6.82a.77.77,0,0,0,.74.57.63.63,0,0,0,.19,0,.75.75,0,0,0,.54-.93l-2.47-9.25V36l2.18,3.5a.78.78,0,0,0,.65.36.71.71,0,0,0,.4-.11.76.76,0,0,0,.25-1L28.39,33.4A1.73,1.73,0,0,0,29.18,32a1.71,1.71,0,0,0-3.42,0,1.69,1.69,0,0,0,.64,1.32L24,35.35l-2.76.56a.76.76,0,0,0,.15,1.51Z"></path><path class="cls-1" d="M17.71,39.25h1.13a1.06,1.06,0,1,0,0-2.11H17.71a1.06,1.06,0,0,0,0,2.11Z"></path><path class="cls-1" d="M35.19,27.11H9.44a1.66,1.66,0,0,0-1.65,1.68L8.79,52a1.65,1.65,0,0,0,1.65,1.65H34.19A1.64,1.64,0,0,0,35.84,52l1-23.23A1.65,1.65,0,0,0,35.19,27.11ZM34,51.8H10.59l-1-22.89H35Z"></path></g></g></svg> 