<?xml version="1.0" encoding="UTF-8"?> <svg xmlns="http://www.w3.org/2000/svg" viewBox="0 0 68.1 52.94"><defs><style>.cls-1{fill:#2951d5;}</style></defs><title>Ресурс 7</title><g id="Слой_2" data-name="Слой 2"><g id="Слой_5" data-name="Слой 5"><path class="cls-1" d="M67.49,13.69a8,8,0,0,0-.79-7.58A15.61,15.61,0,0,0,57,.13a11,11,0,0,0-8.7,2.38,11.22,11.22,0,0,0-4.37,8.75c-.22,6.23,3.66,12.65,7.36,16a15.87,15.87,0,0,1,2.48,2.59,3.78,3.78,0,0,1-.46-.1c-12.52-6.35-22.22-8.17-29.66-5.56-5.67,2-10,6.45-13.47,14C7.56,39.28,5,41.4,5.24,44.27c-3.36,1-4.9,3.09-5.19,4.65A2,2,0,0,0,.74,51c1.13.76,16.06,1.91,30.41,1.91,2.75,0,5.48,0,8.08-.14C54.65,52.24,63,48.34,65.52,40.55c1.74-5.4,0-10.41-5.23-15.31-4.06-3.79-8.16-9.49-8.14-13.69A2.43,2.43,0,0,1,54,9a2,2,0,0,1,2.29,1.12A17.71,17.71,0,0,0,61,15.78c1.5,2,3.89,5.33,4.16,6.35a1.08,1.08,0,0,0,.77.79,1.18,1.18,0,0,0,1.2-.4,4.7,4.7,0,0,0,.68-4.4A11.72,11.72,0,0,1,67.49,13.69ZM58,9.41a3.78,3.78,0,0,0-4.31-2.13,4.22,4.22,0,0,0-3.31,4.27c0,5.06,4.68,11.25,8.71,15C63.82,31,65.33,35.27,63.81,40c-1.42,4.39-5.52,10.3-24.65,11-17,.63-35.59-.93-37.36-1.45a1.71,1.71,0,0,1,.24-.9c.31-.63,1.38-2.16,4.42-2.84A1,1,0,0,0,7,45.39a.91.91,0,0,0,.09-.7c-.82-2.95,3.18-4.62,4-4.92a.91.91,0,0,0,.51-.47C15,32,18.94,27.72,24.2,25.87c7-2.44,16.24-.63,28.34,5.52a.47.47,0,0,0,.15.06c.68.2,2.32.55,2.92-.52s-.3-2.46-3.15-5c-3.4-3.06-7-8.94-6.77-14.59a9.32,9.32,0,0,1,3.68-7.39,9.32,9.32,0,0,1,7.32-2,14,14,0,0,1,8.54,5.23,6.06,6.06,0,0,1,.88,5,5.73,5.73,0,0,0-4,1.24.88.88,0,0,0-.31.75A15.49,15.49,0,0,1,58,9.41Zm8.25,10.78a58.15,58.15,0,0,0-3.6-5.26l.06,0a.9.9,0,0,0,.58-.21,3.85,3.85,0,0,1,2.4-.84,13.37,13.37,0,0,0,.42,4.71A4,4,0,0,1,66.22,20.19Z"></path><path class="cls-1" d="M46.06,41.46a.9.9,0,0,0-1.09.65A6.06,6.06,0,0,1,40.5,46c-3.85,1.09-6.19-.12-6.29-.17a.89.89,0,0,0-.78,0c-.08,0-8.17,3.35-13.6-.51a.93.93,0,0,0-.7-.15c-7.25,1.44-9.62-.79-9.63-.8A.9.9,0,1,0,8.19,45.6c.28.3,3,2.87,10.92,1.4a13,13,0,0,0,7.26,2,22.42,22.42,0,0,0,7.39-1.36,11.19,11.19,0,0,0,7.23.13,7.82,7.82,0,0,0,5.73-5.22A.89.89,0,0,0,46.06,41.46Z"></path><path class="cls-1" d="M63.25,9.93a.89.89,0,0,0,.63.26h.18l.17,0a1,1,0,0,0,.29-.2.81.81,0,0,0,.19-.29.84.84,0,0,0,.07-.35A1,1,0,0,0,64.72,9a1,1,0,0,0-.49-.49l-.17-.05a.92.92,0,0,0-.52.05,1,1,0,0,0-.49.49.89.89,0,0,0,0,.69A.84.84,0,0,0,63.25,9.93Z"></path></g></g></svg> 