<?xml version="1.0" encoding="UTF-8"?> <svg xmlns="http://www.w3.org/2000/svg" viewBox="0 0 41.6 27.2"><defs><style>.cls-1{fill:#f83142;}</style></defs><title>Ресурс 9</title><g id="Слой_2" data-name="Слой 2"><g id="Слой_1-2" data-name="Слой 1"><path class="cls-1" d="M41.6,3.94l-4.45-.13L34.74.06,33.33,4l-.72.43-3.69,1,3.54,2.74h0a11,11,0,0,1-7.25,6.74L26,10.36,20.88,13h-.75L15,10.36l.69,4A13.34,13.34,0,0,1,9.37,7.9l3.31-2.57L9,4.36l-.72-.44L6.87,0,4.45,3.75,0,3.88,2.82,7.33,1.57,11.61,5.72,10l3.71,2.52L9.16,9.4V9.14a13.92,13.92,0,0,0,6.71,6.11l.21,1.21L14.7,17.93l-3.07,2.83,6.14.9L20.5,27.2l2.74-5.54,6.11-.89-4.42-4.32.13-.76A11.8,11.8,0,0,0,32.39,10l-.22,2.54,3.71-2.52L40,11.67,38.79,7.4ZM8.54,11,5.82,9.15l-3.09,1.2.92-3.19L1.56,4.59l3.31-.1L6.67,1.7,7.79,4.83,11,5.67l-2.61,2,0,1.72h.38l-.38,0Zm15.85,4.09-.13.8-.14.83,3.61,3.52-5,.72L20.5,25.49,18.27,21l-5-.72,1.91-1.76L15,18.2l.28.26,1.65-1.75-.2-1.15-.14-.84-.51-3,4.46,2.34L25,11.75Zm14.49-4.67-3.1-1.21-2.72,1.85.13-1.55-.37,0h.37l0-1.24c.06-.19.09-.3.1-.31l-.1,0V7.76l-2.62-2,3.21-.84,1.12-3.13,1.8,2.8,3.32.1L38,7.23Z"></path></g></g></svg> 