<?xml version="1.0" encoding="UTF-8"?> <svg xmlns="http://www.w3.org/2000/svg" viewBox="0 0 33.27 51.47"><defs><style>.cls-1{fill:#f83142;}</style></defs><title>Ресурс 3</title><g id="Слой_2" data-name="Слой 2"><g id="Слой_1-2" data-name="Слой 1"><path class="cls-1" d="M.87,30.71a3.06,3.06,0,0,0,3.67.56l12.09-6.41L26.32,30l2.47,1.31a3.08,3.08,0,0,0,2.85-5.45l-.19.35.19-.35L19.35,19.35l-.77-.41-.38-.2a2.11,2.11,0,0,0-.47-.19,2.71,2.71,0,0,0-.7-.13V14.5l5.21,2.74L21.16,11,25.7,6.58l-6.27-.91L16.63,0l-2.8,5.67-6.29.92,3.15,2.9L12.1,11,11,17.24l5.21-2.74v3.91c-.14,0-.29,0-.43.06a3.33,3.33,0,0,0-.91.36l-.76.4-1.54.82L6.46,23.3,3.39,24.93l-1.54.81a3.63,3.63,0,0,0-.8.52A2.92,2.92,0,0,0,.42,27,3.05,3.05,0,0,0,0,29,3.11,3.11,0,0,0,.87,30.71Zm19.45-20L21,15,17.27,9.88l6-2.07ZM17,2.59,18.91,6.4,23.17,7,17,9.12ZM14.36,6.4l1.88-3.81V9.12L10.1,7Zm-3.1,2.54L11,9.21l.27-.29L10.07,7.85l5.92,2L12.23,15,13,10.74Zm1.65,6.42,3.72-5,3.73,5-3.73-2ZM1.1,27.42a2.3,2.3,0,0,1,.47-.56,2.6,2.6,0,0,1,.65-.42l1.54-.81L6.83,24,13,20.74l1.54-.81.76-.4a2.66,2.66,0,0,1,1.08-.34h.41a2.23,2.23,0,0,1,.73.11,2,2,0,0,1,.34.14l.38.2.77.41,12.28,6.51a2.28,2.28,0,0,1,1.22,1.92,2.28,2.28,0,0,1-3.33,2.12l-2.46-1.3L16.63,24,4.17,30.58A2.29,2.29,0,0,1,1.1,27.42Z"></path><path class="cls-1" d="M31.64,34.17,19.35,27.66l-.77-.41-.39-.2a2.34,2.34,0,0,0-.46-.19,3.24,3.24,0,0,0-1-.15H16.3a4.1,4.1,0,0,0-.49.06,3.53,3.53,0,0,0-.91.36l-.76.4-1.54.82L6.46,31.61,3.39,33.24l-1.54.81a4,4,0,0,0-.8.52,2.92,2.92,0,0,0-.63.77A3.07,3.07,0,0,0,0,37.26,3.14,3.14,0,0,0,.87,39a3,3,0,0,0,1.74.89,3.14,3.14,0,0,0,1.93-.33l12.09-6.42,9.69,5.14,2.47,1.31a3.08,3.08,0,0,0,2.85-5.45Zm-.22,4.64a2.27,2.27,0,0,1-2.27.1l-2.46-1.3L16.63,32.28,4.17,38.89A2.28,2.28,0,0,1,1.1,35.74a2.17,2.17,0,0,1,.47-.57,2.92,2.92,0,0,1,.65-.42l1.54-.81,3.07-1.63L13,29.06l1.54-.82.76-.41a2.71,2.71,0,0,1,.71-.27,1.49,1.49,0,0,1,.36,0,1.2,1.2,0,0,1,.19,0h.23a2.22,2.22,0,0,1,.73.1l.35.14.37.2.77.41,12.28,6.51a2.27,2.27,0,0,1,.16,3.94Z"></path><path class="cls-1" d="M31.64,42.58,19.35,36.07l-.77-.4-.39-.21a3.17,3.17,0,0,0-.46-.19,2.94,2.94,0,0,0-1-.14h-.2a2.08,2.08,0,0,0-.25,0,2.76,2.76,0,0,0-.49.07,3.19,3.19,0,0,0-.91.35l-.76.41-1.54.81L6.46,40,3.39,41.65l-1.54.82a3.63,3.63,0,0,0-.8.52,2.87,2.87,0,0,0-.63.76A3.08,3.08,0,0,0,0,45.67a3.14,3.14,0,0,0,.85,1.77A3.06,3.06,0,0,0,4.54,48l8-4.26v7.73h8.11V43.74l5.63,3L28.79,48a3.08,3.08,0,0,0,2.85-5.45ZM19.9,50.68H13.37V43.32l3.26-1.73,3.27,1.73Zm11.52-3.46a2.27,2.27,0,0,1-2.27.11L26.69,46,16.63,40.69,4.17,47.3A2.28,2.28,0,0,1,1.1,44.15a2.34,2.34,0,0,1,.47-.57,3.32,3.32,0,0,1,.65-.42l1.54-.81,3.07-1.63L13,37.47l1.54-.81.76-.41A2.75,2.75,0,0,1,16,36a2.2,2.2,0,0,1,.37,0h.41a2,2,0,0,1,.73.11,2.09,2.09,0,0,1,.35.13l.37.2.77.41,12.28,6.51a2.31,2.31,0,0,1,1.22,1.92A2.28,2.28,0,0,1,31.42,47.22Z"></path></g></g></svg> 