<?xml version="1.0" encoding="UTF-8"?> <svg xmlns="http://www.w3.org/2000/svg" viewBox="0 0 41.6 37.65"><defs><style>.cls-1{fill:#f83142;}</style></defs><title>Ресурс 5</title><g id="Слой_2" data-name="Слой 2"><g id="Слой_1-2" data-name="Слой 1"><path class="cls-1" d="M24.93,10.75l4.42-4.32-6.11-.89L20.5,0,17.77,5.54l-6.14.9L14.7,9.27l1.38,1.46-1,6.11,5.09-2.68V33.67h.76V14.16L26,16.84ZM20.5,13.1,16,15.45l.85-5L15.24,8.74,15,9l.26-.28L13.31,7l5-.72L20.5,1.71l2.24,4.53,5,.72-3.61,3.52.85,5Z"></path><path class="cls-1" d="M33.33,23.21l1.41,3.92,2.41-3.74,4.45-.14L38.79,19.8,40,15.52l-4.15,1.62-3.71-2.53.27,3.13v1.33L28.92,21.8l3.69,1a22.43,22.43,0,0,0-2.91,2.41,20.56,20.56,0,0,0-2.92,3.59,16.13,16.13,0,0,0-2.66,8.81h.75a15.54,15.54,0,0,1,2.54-8.4A21.07,21.07,0,0,1,33.33,23.21ZM30.6,21.46l2.62-2,0-1.73h-.37l.37,0-.13-1.56L35.78,18l3.09-1.21L38,20l2.1,2.57-3.32.1-1.8,2.79-1.12-3.12Z"></path><path class="cls-1" d="M11.9,25.26A21.11,21.11,0,0,0,9,22.84l3.69-1L9.15,19.13V17.8l.27-3.12L5.72,17.2,1.57,15.59l1.25,4.27L0,23.32l4.45.13L6.87,27.2l1.4-3.93a21.07,21.07,0,0,1,5.92,6,15.54,15.54,0,0,1,2.54,8.4h.75a16.2,16.2,0,0,0-2.65-8.81A21,21,0,0,0,11.9,25.26ZM7.79,22.37,6.67,25.5l-1.8-2.79-3.31-.1L3.65,20l-.92-3.19,3.09,1.2L8.54,16.2l-.13,1.55.38,0H8.41l0,1.72,2.61,2Z"></path></g></g></svg> 