<svg width="172" height="52" viewBox="0 0 172 52" fill="none" xmlns="http://www.w3.org/2000/svg">
<path d="M39.0612 22.7673C37.3672 23.2944 35.8719 24.2983 34.7645 25.652C33.657 27.0057 32.9871 28.6484 32.8395 30.3724C32.6919 32.0964 33.0732 33.8243 33.9352 35.3375C34.7971 36.8507 36.1011 38.0813 37.6821 38.8738C39.2631 39.6662 41.0502 39.9848 42.8174 39.7892C44.5846 39.5937 46.2524 38.8929 47.6101 37.7754C48.9678 36.6579 49.9543 35.1738 50.4449 33.511C50.9354 31.8481 50.9081 30.0811 50.3662 28.4334C49.6331 26.2282 48.0328 24.3947 45.9148 23.3331C43.7967 22.2715 41.3329 22.0681 39.0612 22.7673ZM9.30895 32.0248C7.61494 32.5519 6.11967 33.5557 5.01222 34.9094C3.90476 36.2631 3.23487 37.9058 3.08725 39.6298C2.93963 41.3538 3.32091 43.0817 4.18288 44.5949C5.04484 46.1081 6.34879 47.3388 7.92981 48.1312C9.51083 48.9236 11.2979 49.2422 13.0651 49.0467C14.8323 48.8512 16.5002 48.1503 17.8578 47.0328C19.2155 45.9153 20.202 44.4313 20.6926 42.7684C21.1832 41.1055 21.1558 39.3385 20.6139 37.6908C19.8808 35.4856 18.2805 33.6521 16.1625 32.5905C14.0444 31.529 11.5806 31.3256 9.30895 32.0248Z" stroke="#F73142" stroke-width="3.68291" stroke-miterlimit="10"/>
<path d="M26.7808 35.2886L23.6804 25.8614L14.9536 23.5016L20.7969 11.0499L27.9005 17.5398L34.2116 15.5761" stroke="#F73142" stroke-width="3.68291" stroke-linecap="round" stroke-linejoin="round"/>
<path d="M25.918 8.48976C26.3935 8.34357 26.8346 8.10713 27.2156 7.79413C27.5966 7.48112 27.91 7.09776 28.1378 6.6662C28.3655 6.23464 28.503 5.76345 28.5424 5.27987C28.5818 4.7963 28.5222 4.30993 28.3671 3.84888C28.2212 3.38754 27.9822 2.95912 27.664 2.58869C27.3458 2.21826 26.955 1.91324 26.5142 1.69148C26.0734 1.46971 25.5916 1.33565 25.097 1.29713C24.6023 1.25861 24.1047 1.31641 23.6333 1.46714C23.1592 1.61306 22.7193 1.84837 22.3388 2.15964C21.9582 2.47091 21.6444 2.85204 21.4153 3.28128C20.9525 4.14816 20.8627 5.15834 21.1657 6.0896C21.4687 7.02086 22.1396 7.79691 23.0308 8.24702C23.922 8.69714 24.9606 8.78446 25.918 8.48976Z" fill="#F73142"/>
<path d="M71.5171 33.6401L69.5713 39.8771H68.7373L67.2172 35.2515C67.1824 35.1588 67.152 35.0473 67.126 34.917C67.0941 35.0502 67.0637 35.1617 67.0347 35.2515L65.4972 39.8771H64.6676L62.7218 33.6401H63.4949C63.576 33.6401 63.6441 33.6604 63.6991 33.7009C63.7541 33.7386 63.7903 33.7907 63.8077 33.8573L65.0368 38.0312C65.06 38.1123 65.0803 38.2006 65.0976 38.2962C65.1179 38.3917 65.1382 38.4916 65.1584 38.5958C65.1787 38.4916 65.199 38.3917 65.2192 38.2962C65.2424 38.2006 65.2685 38.1123 65.2974 38.0312L66.7047 33.8573C66.722 33.7994 66.7582 33.7487 66.8132 33.7053C66.8711 33.6618 66.9392 33.6401 67.0174 33.6401H67.2823C67.3634 33.6401 67.43 33.6604 67.4821 33.7009C67.5342 33.7415 67.5719 33.7936 67.595 33.8573L68.9979 38.0312C69.0501 38.1905 69.0964 38.3714 69.1369 38.5741C69.1717 38.3743 69.2093 38.1934 69.2498 38.0312L70.4834 33.8573C70.4978 33.7994 70.534 33.7487 70.5919 33.7053C70.6498 33.6618 70.7179 33.6401 70.7961 33.6401H71.5171ZM76.2692 39.1257L76.2649 39.8771H72.3993V33.6401H76.2649V34.3915H73.3288V36.3677H75.6915V37.0931H73.3288V39.1257H76.2692ZM85.0521 36.7586C85.0521 37.2248 84.9768 37.649 84.8262 38.0312C84.6786 38.4134 84.4686 38.7421 84.1965 39.0172C83.9243 39.2893 83.5985 39.5007 83.2192 39.6513C82.8399 39.8018 82.4186 39.8771 81.9553 39.8771H79.6099V33.6401H81.9553C82.4186 33.6401 82.8399 33.7154 83.2192 33.866C83.5985 34.0165 83.9243 34.2294 84.1965 34.5044C84.4686 34.7766 84.6786 35.1053 84.8262 35.4904C84.9768 35.8726 85.0521 36.2953 85.0521 36.7586ZM84.1053 36.7586C84.1053 36.388 84.0546 36.0564 83.9532 35.764C83.8519 35.4687 83.7071 35.2196 83.5189 35.0169C83.3336 34.8114 83.1077 34.655 82.8413 34.5479C82.5778 34.4407 82.2825 34.3872 81.9553 34.3872H80.5394V39.1301H81.9553C82.2825 39.1301 82.5778 39.0765 82.8413 38.9694C83.1077 38.8622 83.3336 38.7073 83.5189 38.5046C83.7071 38.2991 83.8519 38.05 83.9532 37.7576C84.0546 37.4651 84.1053 37.1321 84.1053 36.7586ZM92.0296 36.7586C92.0296 37.2248 91.9543 37.6533 91.8037 38.0442C91.6561 38.4322 91.4461 38.7681 91.174 39.0519C90.9018 39.3328 90.576 39.5514 90.1967 39.7077C89.8174 39.8641 89.3961 39.9423 88.9328 39.9423C88.4724 39.9423 88.0511 39.8641 87.6689 39.7077C87.2896 39.5514 86.9638 39.3328 86.6916 39.0519C86.4223 38.7681 86.2124 38.4322 86.0619 38.0442C85.9113 37.6533 85.836 37.2248 85.836 36.7586C85.836 36.2953 85.9113 35.8682 86.0619 35.4773C86.2124 35.0864 86.4223 34.7506 86.6916 34.4697C86.9638 34.1859 87.2896 33.9659 87.6689 33.8095C88.0511 33.6502 88.4724 33.5706 88.9328 33.5706C89.3961 33.5706 89.8174 33.6502 90.1967 33.8095C90.576 33.9659 90.9018 34.1859 91.174 34.4697C91.4461 34.7506 91.6561 35.0864 91.8037 35.4773C91.9543 35.8682 92.0296 36.2953 92.0296 36.7586ZM91.0827 36.7586C91.0827 36.388 91.0321 36.055 90.9307 35.7597C90.8294 35.4643 90.6846 35.2138 90.4964 35.0083C90.3111 34.8027 90.0852 34.6449 89.8188 34.5348C89.5553 34.4248 89.26 34.3698 88.9328 34.3698C88.6056 34.3698 88.3088 34.4248 88.0424 34.5348C87.7789 34.6449 87.5531 34.8027 87.3649 35.0083C87.1766 35.2138 87.0319 35.4643 86.9305 35.7597C86.8292 36.055 86.7785 36.388 86.7785 36.7586C86.7785 37.1321 86.8292 37.4666 86.9305 37.7619C87.0319 38.0544 87.1766 38.3034 87.3649 38.509C87.5531 38.7146 87.7789 38.8724 88.0424 38.9824C88.3088 39.0895 88.6056 39.1431 88.9328 39.1431C89.26 39.1431 89.5553 39.0895 89.8188 38.9824C90.0852 38.8724 90.3111 38.7146 90.4964 38.509C90.6846 38.3034 90.8294 38.0544 90.9307 37.7619C91.0321 37.4666 91.0827 37.1321 91.0827 36.7586ZM96.3179 39.8771H95.3884V33.6401H96.3179V39.8771ZM102.109 34.4132H100.129V39.8771H99.2078V34.4132H97.2185V33.6401H102.109V34.4132ZM112.982 33.6401L111.036 39.8771H110.203L108.682 35.2515C108.648 35.1588 108.617 35.0473 108.591 34.917C108.559 35.0502 108.529 35.1617 108.5 35.2515L106.962 39.8771H106.133L104.187 33.6401H104.96C105.041 33.6401 105.109 33.6604 105.164 33.7009C105.219 33.7386 105.255 33.7907 105.273 33.8573L106.502 38.0312C106.525 38.1123 106.545 38.2006 106.563 38.2962C106.583 38.3917 106.603 38.4916 106.624 38.5958C106.644 38.4916 106.664 38.3917 106.684 38.2962C106.708 38.2006 106.734 38.1123 106.763 38.0312L108.17 33.8573C108.187 33.7994 108.223 33.7487 108.278 33.7053C108.336 33.6618 108.404 33.6401 108.483 33.6401H108.748C108.829 33.6401 108.895 33.6604 108.947 33.7009C108.999 33.7415 109.037 33.7936 109.06 33.8573L110.463 38.0312C110.515 38.1905 110.562 38.3714 110.602 38.5741C110.637 38.3743 110.675 38.1934 110.715 38.0312L111.949 33.8573C111.963 33.7994 111.999 33.7487 112.057 33.7053C112.115 33.6618 112.183 33.6401 112.261 33.6401H112.982ZM114.794 39.8771H113.865V33.6401H114.794V39.8771ZM120.585 34.4132H118.605V39.8771H117.684V34.4132H115.695V33.6401H120.585V34.4132ZM126.59 33.6401V39.8771H125.665V37.067H122.412V39.8771H121.482V33.6401H122.412V36.3938H125.665V33.6401H126.59ZM132.219 36.8498C132.454 36.8498 132.66 36.8194 132.836 36.7586C133.016 36.6978 133.165 36.6124 133.284 36.5024C133.405 36.3894 133.496 36.2562 133.557 36.1028C133.618 35.9464 133.648 35.7741 133.648 35.5859C133.648 35.2066 133.53 34.9084 133.292 34.6912C133.058 34.474 132.7 34.3654 132.219 34.3654H131.255V36.8498H132.219ZM132.219 33.6401C132.619 33.6401 132.967 33.6864 133.262 33.7791C133.557 33.8718 133.802 34.0035 133.996 34.1743C134.19 34.3423 134.333 34.5464 134.426 34.7867C134.521 35.0271 134.569 35.2935 134.569 35.5859C134.569 35.8784 134.519 36.1477 134.417 36.3938C134.316 36.637 134.167 36.8469 133.97 37.0236C133.773 37.2002 133.527 37.3377 133.231 37.4362C132.939 37.5317 132.602 37.5795 132.219 37.5795H131.255V39.8771H130.33V33.6401H132.219ZM138.471 37.5534L137.546 35.1342C137.479 34.9692 137.413 34.7607 137.346 34.5088C137.314 34.6333 137.281 34.7491 137.246 34.8562C137.214 34.9634 137.182 35.0589 137.151 35.1429L136.23 37.5534H138.471ZM140.3 39.8771H139.587C139.506 39.8771 139.44 39.8569 139.387 39.8163C139.335 39.7758 139.298 39.7237 139.274 39.66L138.723 38.2136H135.974L135.422 39.66C135.402 39.715 135.364 39.7657 135.309 39.812C135.254 39.8554 135.187 39.8771 135.109 39.8771H134.397L136.881 33.6401H137.815L140.3 39.8771ZM144.305 34.6564C144.276 34.7057 144.246 34.7419 144.214 34.765C144.182 34.7882 144.142 34.7998 144.092 34.7998C144.04 34.7998 143.981 34.7766 143.914 34.7303C143.848 34.6811 143.764 34.6275 143.662 34.5696C143.564 34.5088 143.445 34.4552 143.306 34.4089C143.167 34.3597 143.001 34.335 142.807 34.335C142.624 34.335 142.464 34.3597 142.325 34.4089C142.189 34.4552 142.074 34.5204 141.982 34.6043C141.889 34.6854 141.818 34.7824 141.769 34.8953C141.722 35.0054 141.699 35.1255 141.699 35.2558C141.699 35.4238 141.741 35.5628 141.825 35.6728C141.912 35.7828 142.025 35.8769 142.164 35.9551C142.303 36.0333 142.461 36.1013 142.637 36.1592C142.814 36.2172 142.995 36.278 143.18 36.3417C143.366 36.4025 143.547 36.4734 143.723 36.5545C143.9 36.6356 144.058 36.7384 144.197 36.8629C144.336 36.9845 144.447 37.135 144.531 37.3146C144.618 37.4912 144.661 37.7084 144.661 37.9661C144.661 38.2411 144.614 38.4988 144.518 38.7392C144.425 38.9795 144.289 39.1894 144.11 39.369C143.93 39.5485 143.709 39.6904 143.445 39.7946C143.185 39.896 142.888 39.9466 142.555 39.9466C142.355 39.9466 142.161 39.9264 141.973 39.8858C141.785 39.8482 141.607 39.7946 141.439 39.7251C141.271 39.6527 141.113 39.5673 140.965 39.4689C140.82 39.3675 140.69 39.2546 140.574 39.1301L140.839 38.6871C140.865 38.6523 140.896 38.6234 140.931 38.6002C140.968 38.577 141.01 38.5654 141.056 38.5654C141.117 38.5654 141.187 38.5973 141.265 38.661C141.346 38.7247 141.444 38.7956 141.56 38.8738C141.679 38.9491 141.819 39.0186 141.982 39.0823C142.147 39.146 142.346 39.1779 142.581 39.1779C142.772 39.1779 142.943 39.1532 143.093 39.104C143.244 39.0519 143.37 38.9795 143.471 38.8869C143.576 38.7913 143.655 38.6769 143.71 38.5437C143.765 38.4105 143.793 38.2629 143.793 38.1007C143.793 37.9183 143.751 37.7692 143.667 37.6533C143.583 37.5375 143.471 37.4405 143.332 37.3623C143.193 37.2842 143.036 37.2176 142.859 37.1626C142.682 37.1075 142.501 37.0511 142.316 36.9932C142.131 36.9324 141.95 36.8629 141.773 36.7847C141.596 36.7065 141.439 36.6052 141.3 36.4806C141.161 36.3532 141.049 36.1954 140.965 36.0072C140.881 35.8161 140.839 35.5816 140.839 35.3036C140.839 35.0806 140.883 34.8649 140.97 34.6564C141.056 34.448 141.182 34.2641 141.347 34.1048C141.515 33.9427 141.721 33.8138 141.964 33.7183C142.207 33.6198 142.485 33.5706 142.798 33.5706C143.149 33.5706 143.47 33.6271 143.762 33.74C144.058 33.85 144.314 34.0093 144.531 34.2178L144.305 34.6564ZM149.03 34.6564C149.001 34.7057 148.971 34.7419 148.939 34.765C148.907 34.7882 148.867 34.7998 148.818 34.7998C148.765 34.7998 148.706 34.7766 148.639 34.7303C148.573 34.6811 148.489 34.6275 148.388 34.5696C148.289 34.5088 148.17 34.4552 148.031 34.4089C147.892 34.3597 147.726 34.335 147.532 34.335C147.349 34.335 147.189 34.3597 147.05 34.4089C146.914 34.4552 146.799 34.5204 146.707 34.6043C146.614 34.6854 146.543 34.7824 146.494 34.8953C146.448 35.0054 146.424 35.1255 146.424 35.2558C146.424 35.4238 146.466 35.5628 146.55 35.6728C146.637 35.7828 146.75 35.8769 146.889 35.9551C147.028 36.0333 147.186 36.1013 147.363 36.1592C147.539 36.2172 147.72 36.278 147.905 36.3417C148.091 36.4025 148.272 36.4734 148.448 36.5545C148.625 36.6356 148.783 36.7384 148.922 36.8629C149.061 36.9845 149.172 37.135 149.256 37.3146C149.343 37.4912 149.386 37.7084 149.386 37.9661C149.386 38.2411 149.339 38.4988 149.243 38.7392C149.151 38.9795 149.014 39.1894 148.835 39.369C148.655 39.5485 148.434 39.6904 148.17 39.7946C147.91 39.896 147.613 39.9466 147.28 39.9466C147.08 39.9466 146.886 39.9264 146.698 39.8858C146.51 39.8482 146.332 39.7946 146.164 39.7251C145.996 39.6527 145.838 39.5673 145.69 39.4689C145.546 39.3675 145.415 39.2546 145.299 39.1301L145.564 38.6871C145.59 38.6523 145.621 38.6234 145.656 38.6002C145.693 38.577 145.735 38.5654 145.782 38.5654C145.842 38.5654 145.912 38.5973 145.99 38.661C146.071 38.7247 146.17 38.7956 146.285 38.8738C146.404 38.9491 146.545 39.0186 146.707 39.0823C146.872 39.146 147.071 39.1779 147.306 39.1779C147.497 39.1779 147.668 39.1532 147.819 39.104C147.969 39.0519 148.095 38.9795 148.196 38.8869C148.301 38.7913 148.38 38.6769 148.435 38.5437C148.49 38.4105 148.518 38.2629 148.518 38.1007C148.518 37.9183 148.476 37.7692 148.392 37.6533C148.308 37.5375 148.196 37.4405 148.057 37.3623C147.918 37.2842 147.761 37.2176 147.584 37.1626C147.407 37.1075 147.226 37.0511 147.041 36.9932C146.856 36.9324 146.675 36.8629 146.498 36.7847C146.322 36.7065 146.164 36.6052 146.025 36.4806C145.886 36.3532 145.774 36.1954 145.69 36.0072C145.606 35.8161 145.564 35.5816 145.564 35.3036C145.564 35.0806 145.608 34.8649 145.695 34.6564C145.782 34.448 145.907 34.2641 146.073 34.1048C146.24 33.9427 146.446 33.8138 146.689 33.7183C146.933 33.6198 147.21 33.5706 147.523 33.5706C147.874 33.5706 148.195 33.6271 148.487 33.74C148.783 33.85 149.039 34.0093 149.256 34.2178L149.03 34.6564ZM151.458 39.8771H150.528V33.6401H151.458V39.8771ZM158.808 36.7586C158.808 37.2248 158.733 37.6533 158.582 38.0442C158.435 38.4322 158.225 38.7681 157.953 39.0519C157.68 39.3328 157.355 39.5514 156.975 39.7077C156.596 39.8641 156.175 39.9423 155.711 39.9423C155.251 39.9423 154.83 39.8641 154.448 39.7077C154.068 39.5514 153.742 39.3328 153.47 39.0519C153.201 38.7681 152.991 38.4322 152.841 38.0442C152.69 37.6533 152.615 37.2248 152.615 36.7586C152.615 36.2953 152.69 35.8682 152.841 35.4773C152.991 35.0864 153.201 34.7506 153.47 34.4697C153.742 34.1859 154.068 33.9659 154.448 33.8095C154.83 33.6502 155.251 33.5706 155.711 33.5706C156.175 33.5706 156.596 33.6502 156.975 33.8095C157.355 33.9659 157.68 34.1859 157.953 34.4697C158.225 34.7506 158.435 35.0864 158.582 35.4773C158.733 35.8682 158.808 36.2953 158.808 36.7586ZM157.861 36.7586C157.861 36.388 157.811 36.055 157.709 35.7597C157.608 35.4643 157.463 35.2138 157.275 35.0083C157.09 34.8027 156.864 34.6449 156.598 34.5348C156.334 34.4248 156.039 34.3698 155.711 34.3698C155.384 34.3698 155.087 34.4248 154.821 34.5348C154.558 34.6449 154.332 34.8027 154.144 35.0083C153.955 35.2138 153.811 35.4643 153.709 35.7597C153.608 36.055 153.557 36.388 153.557 36.7586C153.557 37.1321 153.608 37.4666 153.709 37.7619C153.811 38.0544 153.955 38.3034 154.144 38.509C154.332 38.7146 154.558 38.8724 154.821 38.9824C155.087 39.0895 155.384 39.1431 155.711 39.1431C156.039 39.1431 156.334 39.0895 156.598 38.9824C156.864 38.8724 157.09 38.7146 157.275 38.509C157.463 38.3034 157.608 38.0544 157.709 37.7619C157.811 37.4666 157.861 37.1321 157.861 36.7586ZM165.078 33.6401V39.8771H164.609C164.536 39.8771 164.475 39.8641 164.426 39.838C164.38 39.812 164.332 39.77 164.283 39.7121L160.76 35.1559C160.766 35.2341 160.771 35.3108 160.773 35.3861C160.779 35.4614 160.782 35.5324 160.782 35.599V39.8771H159.97V33.6401H160.448C160.529 33.6401 160.59 33.6502 160.63 33.6705C160.671 33.6879 160.716 33.7299 160.765 33.7965L164.296 38.357C164.287 38.273 164.28 38.1919 164.274 38.1137C164.271 38.0327 164.27 37.9574 164.27 37.8879V33.6401H165.078Z" fill="black"/>
<path d="M75.8035 21.2855C75.8035 22.3633 75.6239 23.353 75.2646 24.2545C74.9053 25.156 74.4004 25.9322 73.7496 26.5829C73.0989 27.2336 72.316 27.7386 71.4009 28.0979C70.4858 28.4571 69.469 28.6368 68.3506 28.6368H62.7482V13.9343H68.3506C69.469 13.9343 70.4858 14.1173 71.4009 14.4834C72.316 14.8426 73.0989 15.3476 73.7496 15.9984C74.4004 16.6423 74.9053 17.4151 75.2646 18.3166C75.6239 19.2181 75.8035 20.2078 75.8035 21.2855ZM72.9972 21.2855C72.9972 20.4789 72.8888 19.757 72.6719 19.1198C72.4617 18.4759 72.1533 17.9336 71.7466 17.493C71.3467 17.0456 70.8586 16.7033 70.2825 16.4661C69.7131 16.2288 69.0691 16.1102 68.3506 16.1102H65.4935V26.4609H68.3506C69.0691 26.4609 69.7131 26.3423 70.2825 26.105C70.8586 25.8678 71.3467 25.5288 71.7466 25.0882C72.1533 24.6409 72.4617 24.0986 72.6719 23.4614C72.8888 22.8175 72.9972 22.0922 72.9972 21.2855ZM80.9634 16.1102V20.1874H86.1083V22.2921H80.9634V26.4507H87.4911V28.6368H78.2182V13.9343H87.4911V16.1102H80.9634ZM95.4156 26.5016C95.924 26.5016 96.3511 26.4405 96.6968 26.3185C97.0425 26.1965 97.317 26.0338 97.5203 25.8305C97.7305 25.6271 97.8796 25.3899 97.9677 25.1187C98.0626 24.8476 98.1101 24.5595 98.1101 24.2545C98.1101 23.9359 98.0592 23.6512 97.9576 23.4004C97.8559 23.1428 97.6966 22.9259 97.4797 22.7497C97.2628 22.5667 96.9815 22.4277 96.6358 22.3328C96.2968 22.2379 95.8867 22.1905 95.4055 22.1905H92.65V26.5016H95.4156ZM92.65 16.0492V20.2993H94.8259C95.7613 20.2993 96.4663 20.1298 96.9408 19.7909C97.4221 19.452 97.6627 18.9131 97.6627 18.1742C97.6627 17.4083 97.4458 16.8626 97.012 16.5372C96.5781 16.2119 95.9003 16.0492 94.9784 16.0492H92.65ZM94.9784 13.9343C95.941 13.9343 96.7645 14.0258 97.4492 14.2088C98.1338 14.3919 98.693 14.6528 99.1268 14.9918C99.5674 15.3307 99.8894 15.7408 100.093 16.222C100.296 16.7033 100.398 17.2456 100.398 17.8489C100.398 18.1946 100.347 18.5267 100.245 18.8453C100.144 19.1571 99.9843 19.452 99.7674 19.7299C99.5573 20.001 99.2861 20.2484 98.954 20.4721C98.6286 20.6958 98.2389 20.8856 97.7847 21.0415C99.8047 21.4957 100.815 22.587 100.815 24.3155C100.815 24.9391 100.696 25.5153 100.459 26.044C100.222 26.5727 99.8759 27.0303 99.4217 27.4166C98.9675 27.7962 98.4083 28.0945 97.744 28.3114C97.0797 28.5283 96.3206 28.6368 95.4665 28.6368H89.9149V13.9343H94.9784ZM107.743 20.9297C108.258 20.9297 108.706 20.8653 109.085 20.7365C109.471 20.6077 109.787 20.4315 110.031 20.2078C110.281 19.9773 110.468 19.7062 110.59 19.3944C110.712 19.0825 110.773 18.7402 110.773 18.3674C110.773 17.6218 110.526 17.049 110.031 16.6491C109.543 16.2492 108.794 16.0492 107.784 16.0492H106.035V20.9297H107.743ZM114.779 28.6368H112.308C111.841 28.6368 111.502 28.4537 111.291 28.0877L108.201 23.3801C108.085 23.2038 107.956 23.0784 107.814 23.0039C107.679 22.9293 107.475 22.892 107.204 22.892H106.035V28.6368H103.3V13.9343H107.784C108.78 13.9343 109.634 14.0394 110.346 14.2495C111.064 14.4529 111.651 14.741 112.105 15.1138C112.566 15.4866 112.905 15.934 113.122 16.4559C113.339 16.9711 113.447 17.5405 113.447 18.1641C113.447 18.6589 113.372 19.1266 113.223 19.5672C113.081 20.0078 112.871 20.4077 112.593 20.767C112.322 21.1262 111.983 21.4414 111.576 21.7126C111.176 21.9837 110.719 22.1972 110.204 22.3531C110.38 22.4548 110.542 22.5768 110.692 22.7192C110.841 22.8547 110.976 23.0174 111.098 23.2072L114.779 28.6368ZM130.189 21.2855C130.189 22.3633 130.01 23.3631 129.65 24.285C129.298 25.2001 128.796 25.9932 128.146 26.6642C127.495 27.3353 126.712 27.8606 125.797 28.2402C124.882 28.613 123.865 28.7994 122.747 28.7994C121.635 28.7994 120.622 28.613 119.706 28.2402C118.791 27.8606 118.005 27.3353 117.348 26.6642C116.697 25.9932 116.192 25.2001 115.833 24.285C115.473 23.3631 115.294 22.3633 115.294 21.2855C115.294 20.2078 115.473 19.2113 115.833 18.2962C116.192 17.3744 116.697 16.5779 117.348 15.9068C118.005 15.2358 118.791 14.7138 119.706 14.341C120.622 13.9614 121.635 13.7716 122.747 13.7716C123.492 13.7716 124.194 13.8598 124.851 14.036C125.509 14.2055 126.112 14.4495 126.661 14.7681C127.21 15.0799 127.702 15.4629 128.135 15.917C128.576 16.3644 128.949 16.866 129.254 17.4218C129.559 17.9777 129.789 18.5809 129.945 19.2317C130.108 19.8824 130.189 20.567 130.189 21.2855ZM127.393 21.2855C127.393 20.4789 127.285 19.757 127.068 19.1198C126.851 18.4759 126.543 17.9302 126.143 17.4828C125.743 17.0355 125.255 16.6931 124.678 16.4559C124.109 16.2187 123.465 16.1 122.747 16.1C122.028 16.1 121.381 16.2187 120.805 16.4559C120.235 16.6931 119.747 17.0355 119.34 17.4828C118.941 17.9302 118.632 18.4759 118.415 19.1198C118.198 19.757 118.09 20.4789 118.09 21.2855C118.09 22.0922 118.198 22.8175 118.415 23.4614C118.632 24.0986 118.941 24.6409 119.34 25.0882C119.747 25.5288 120.235 25.8678 120.805 26.105C121.381 26.3423 122.028 26.4609 122.747 26.4609C123.465 26.4609 124.109 26.3423 124.678 26.105C125.255 25.8678 125.743 25.5288 126.143 25.0882C126.543 24.6409 126.851 24.0986 127.068 23.4614C127.285 22.8175 127.393 22.0922 127.393 21.2855ZM151.856 13.9343L147.291 28.6368H144.82L141.607 18.5911C141.519 18.3471 141.438 18.0488 141.363 17.6964C141.322 17.8658 141.282 18.0251 141.241 18.1742C141.2 18.3234 141.156 18.4623 141.109 18.5911L137.865 28.6368H135.384L130.829 13.9343H133.117C133.354 13.9343 133.551 13.9919 133.707 14.1072C133.869 14.2156 133.978 14.3648 134.032 14.5545L136.533 23.3496C136.588 23.5665 136.638 23.8037 136.686 24.0613C136.74 24.3121 136.794 24.5765 136.849 24.8544C136.903 24.5697 136.96 24.3019 137.021 24.0511C137.089 23.8003 137.16 23.5665 137.235 23.3496L140.123 14.5545C140.177 14.3986 140.282 14.2563 140.438 14.1275C140.6 13.9987 140.797 13.9343 141.027 13.9343H141.831C142.068 13.9343 142.261 13.9919 142.41 14.1072C142.559 14.2224 142.671 14.3715 142.746 14.5545L145.623 23.3496C145.766 23.7698 145.894 24.2545 146.01 24.8036C146.098 24.2681 146.196 23.7834 146.304 23.3496L148.806 14.5545C148.846 14.3851 148.948 14.2394 149.111 14.1173C149.28 13.9953 149.48 13.9343 149.711 13.9343H151.856ZM166.056 13.9343V28.6368H164.653C164.436 28.6368 164.253 28.6029 164.104 28.5351C163.961 28.4605 163.822 28.3385 163.687 28.169L156.01 18.3674C156.051 18.8148 156.071 19.2283 156.071 19.6079V28.6368H153.661V13.9343H155.095C155.21 13.9343 155.309 13.9411 155.39 13.9547C155.478 13.9614 155.553 13.9818 155.614 14.0157C155.681 14.0428 155.746 14.0868 155.807 14.1478C155.868 14.2021 155.936 14.2766 156.01 14.3715L163.717 24.2138C163.697 23.9766 163.68 23.7427 163.666 23.5123C163.653 23.2818 163.646 23.0683 163.646 22.8717V13.9343H166.056Z" fill="#F73142"/>
</svg>
